<?xml version="1.0" encoding="us-ascii" standalone="no"?><svg xmlns="http://www.w3.org/2000/svg" xmlns:xlink="http://www.w3.org/1999/xlink" contentStyleType="text/css" height="1567px" preserveAspectRatio="none" style="width:1293px;height:1567px;background:#FFFFFF;" version="1.1" viewBox="0 0 1293 1567" width="1293px" zoomAndPan="magnify"><defs/><g><text fill="#000000" font-family="sans-serif" font-size="14" font-weight="bold" lengthAdjust="spacing" textLength="190" x="547.75" y="29.9659">Service Discovery Sequence</text><rect fill="#EFEFEF" height="1310.9777" style="stroke:#777777;stroke-width:1.0;" width="10" x="211" y="207.9599"/><rect fill="none" height="114.8241" style="stroke:#000000;stroke-width:1.5;" width="864" x="412.5" y="286.3719"/><rect fill="none" height="163.512" style="stroke:#000000;stroke-width:1.5;" width="484" x="185.5" y="446.902"/><rect fill="none" height="713.2875" style="stroke:#000000;stroke-width:1.5;" width="630" x="175.5" y="743.2381"/><rect fill="none" height="324.2998" style="stroke:#000000;stroke-width:1.5;" width="610" x="185.5" y="769.9441"/><rect fill="none" height="324.2998" style="stroke:#000000;stroke-width:1.5;" width="610" x="185.5" y="1125.2258"/><line style="stroke:#777777;stroke-width:0.5;stroke-dasharray:5.0,5.0;" x1="82.5" x2="82.5" y1="79.1358" y2="1528.9376"/><line style="stroke:#777777;stroke-width:0.5;stroke-dasharray:5.0,5.0;" x1="215.5" x2="215.5" y1="79.1358" y2="1528.9376"/><line style="stroke:#777777;stroke-width:0.5;stroke-dasharray:5.0,5.0;" x1="316.5" x2="316.5" y1="79.1358" y2="1528.9376"/><line style="stroke:#777777;stroke-width:0.5;stroke-dasharray:5.0,5.0;" x1="468.5" x2="468.5" y1="79.1358" y2="1528.9376"/><line style="stroke:#777777;stroke-width:0.5;stroke-dasharray:5.0,5.0;" x1="592.5" x2="592.5" y1="79.1358" y2="1528.9376"/><line style="stroke:#777777;stroke-width:0.5;stroke-dasharray:5.0,5.0;" x1="727.5" x2="727.5" y1="79.1358" y2="1528.9376"/><line style="stroke:#777777;stroke-width:0.5;stroke-dasharray:5.0,5.0;" x1="860.5" x2="860.5" y1="79.1358" y2="1528.9376"/><line style="stroke:#777777;stroke-width:0.5;stroke-dasharray:5.0,5.0;" x1="1013.5" x2="1013.5" y1="79.1358" y2="1528.9376"/><line style="stroke:#777777;stroke-width:0.5;stroke-dasharray:5.0,5.0;" x1="1218.5" x2="1218.5" y1="79.1358" y2="1528.9376"/><rect fill="#CFE8FF" height="33.0679" rx="2.5" ry="2.5" style="stroke:#666666;stroke-width:0.5;" width="89" x="38.5" y="45.0679"/><text fill="#000000" font-family="sans-serif" font-size="14" lengthAdjust="spacing" textLength="75" x="45.5" y="67.0339">AppFactory</text><rect fill="#CFE8FF" height="33.0679" rx="2.5" ry="2.5" style="stroke:#666666;stroke-width:0.5;" width="89" x="38.5" y="1527.9376"/><text fill="#000000" font-family="sans-serif" font-size="14" lengthAdjust="spacing" textLength="75" x="45.5" y="1549.9035">AppFactory</text><rect fill="#CFE8FF" height="33.0679" rx="2.5" ry="2.5" style="stroke:#666666;stroke-width:0.5;" width="41" x="195.5" y="45.0679"/><text fill="#000000" font-family="sans-serif" font-size="14" lengthAdjust="spacing" textLength="27" x="202.5" y="67.0339">App</text><rect fill="#CFE8FF" height="33.0679" rx="2.5" ry="2.5" style="stroke:#666666;stroke-width:0.5;" width="41" x="195.5" y="1527.9376"/><text fill="#000000" font-family="sans-serif" font-size="14" lengthAdjust="spacing" textLength="27" x="202.5" y="1549.9035">App</text><rect fill="#F7F7F7" height="33.0679" rx="2.5" ry="2.5" style="stroke:#666666;stroke-width:0.5;" width="141" x="246.5" y="45.0679"/><text fill="#000000" font-family="sans-serif" font-size="14" lengthAdjust="spacing" textLength="127" x="253.5" y="67.0339">ProxyNeedsFactory</text><rect fill="#F7F7F7" height="33.0679" rx="2.5" ry="2.5" style="stroke:#666666;stroke-width:0.5;" width="141" x="246.5" y="1527.9376"/><text fill="#000000" font-family="sans-serif" font-size="14" lengthAdjust="spacing" textLength="127" x="253.5" y="1549.9035">ProxyNeedsFactory</text><rect fill="#F7F7F7" height="33.0679" rx="2.5" ry="2.5" style="stroke:#666666;stroke-width:0.5;" width="93" x="422.5" y="45.0679"/><text fill="#000000" font-family="sans-serif" font-size="14" lengthAdjust="spacing" textLength="79" x="429.5" y="67.0339">ProxyNeeds</text><rect fill="#F7F7F7" height="33.0679" rx="2.5" ry="2.5" style="stroke:#666666;stroke-width:0.5;" width="93" x="422.5" y="1527.9376"/><text fill="#000000" font-family="sans-serif" font-size="14" lengthAdjust="spacing" textLength="79" x="429.5" y="1549.9035">ProxyNeeds</text><rect fill="#F7F7F7" height="33.0679" rx="2.5" ry="2.5" style="stroke:#666666;stroke-width:0.5;" width="134" x="525.5" y="45.0679"/><text fill="#000000" font-family="sans-serif" font-size="14" lengthAdjust="spacing" textLength="120" x="532.5" y="67.0339">RequestedProxies</text><rect fill="#F7F7F7" height="33.0679" rx="2.5" ry="2.5" style="stroke:#666666;stroke-width:0.5;" width="134" x="525.5" y="1527.9376"/><text fill="#000000" font-family="sans-serif" font-size="14" lengthAdjust="spacing" textLength="120" x="532.5" y="1549.9035">RequestedProxies</text><rect fill="#F7F7F7" height="33.0679" rx="2.5" ry="2.5" style="stroke:#666666;stroke-width:0.5;" width="116" x="669.5" y="45.0679"/><text fill="#000000" font-family="sans-serif" font-size="14" lengthAdjust="spacing" textLength="102" x="676.5" y="67.0339">ProxyContainer</text><rect fill="#F7F7F7" height="33.0679" rx="2.5" ry="2.5" style="stroke:#666666;stroke-width:0.5;" width="116" x="669.5" y="1527.9376"/><text fill="#000000" font-family="sans-serif" font-size="14" lengthAdjust="spacing" textLength="102" x="676.5" y="1549.9035">ProxyContainer</text><rect fill="#F7F7F7" height="33.0679" rx="2.5" ry="2.5" style="stroke:#666666;stroke-width:0.5;" width="131" x="795.5" y="45.0679"/><text fill="#000000" font-family="sans-serif" font-size="14" lengthAdjust="spacing" textLength="117" x="802.5" y="67.0339">ProxyBuilderBase</text><rect fill="#F7F7F7" height="33.0679" rx="2.5" ry="2.5" style="stroke:#666666;stroke-width:0.5;" width="131" x="795.5" y="1527.9376"/><text fill="#000000" font-family="sans-serif" font-size="14" lengthAdjust="spacing" textLength="117" x="802.5" y="1549.9035">ProxyBuilderBase</text><rect fill="#F7F7F7" height="33.0679" rx="2.5" ry="2.5" style="stroke:#666666;stroke-width:0.5;" width="99" x="964.5" y="45.0679"/><text fill="#000000" font-family="sans-serif" font-size="14" lengthAdjust="spacing" textLength="85" x="971.5" y="67.0339">FindStrategy</text><rect fill="#F7F7F7" height="33.0679" rx="2.5" ry="2.5" style="stroke:#666666;stroke-width:0.5;" width="99" x="964.5" y="1527.9376"/><text fill="#000000" font-family="sans-serif" font-size="14" lengthAdjust="spacing" textLength="85" x="971.5" y="1549.9035">FindStrategy</text><rect fill="#F7F7F7" height="33.0679" rx="2.5" ry="2.5" style="stroke:#666666;stroke-width:0.5;" width="95" x="1171.5" y="45.0679"/><text fill="#000000" font-family="sans-serif" font-size="14" lengthAdjust="spacing" textLength="81" x="1178.5" y="67.0339">ProxyHolder</text><rect fill="#F7F7F7" height="33.0679" rx="2.5" ry="2.5" style="stroke:#666666;stroke-width:0.5;" width="95" x="1171.5" y="1527.9376"/><text fill="#000000" font-family="sans-serif" font-size="14" lengthAdjust="spacing" textLength="81" x="1178.5" y="1549.9035">ProxyHolder</text><rect fill="#EFEFEF" height="1310.9777" style="stroke:#777777;stroke-width:1.0;" width="10" x="211" y="207.9599"/><polygon fill="#181818" points="71,108.8419,81,112.8419,71,116.8419,75,112.8419" style="stroke:#181818;stroke-width:1.0;"/><line style="stroke:#181818;stroke-width:1.0;" x1="0" x2="77" y1="112.8419" y2="112.8419"/><text fill="#000000" font-family="sans-serif" font-size="13" lengthAdjust="spacing" textLength="59" x="7" y="107.0328">Configure</text><polygon fill="#181818" points="305,140.5479,315,144.5479,305,148.5479,309,144.5479" style="stroke:#181818;stroke-width:1.0;"/><line style="stroke:#181818;stroke-width:1.0;" x1="83" x2="311" y1="144.5479" y2="144.5479"/><text fill="#000000" font-family="sans-serif" font-size="13" lengthAdjust="spacing" textLength="130" x="90" y="138.7389">Create&lt;Strategies...&gt;()</text><polygon fill="#181818" points="94,172.2539,84,176.2539,94,180.2539,90,176.2539" style="stroke:#181818;stroke-width:1.0;"/><line style="stroke:#181818;stroke-width:1.0;stroke-dasharray:2.0,2.0;" x1="88" x2="316" y1="176.2539" y2="176.2539"/><text fill="#000000" font-family="sans-serif" font-size="13" lengthAdjust="spacing" textLength="73" x="100" y="170.4449">ProxyNeeds</text><polygon fill="#181818" points="199,203.9599,209,207.9599,199,211.9599,203,207.9599" style="stroke:#181818;stroke-width:1.0;"/><line style="stroke:#181818;stroke-width:1.0;" x1="83" x2="205" y1="207.9599" y2="207.9599"/><text fill="#000000" font-family="sans-serif" font-size="13" lengthAdjust="spacing" textLength="109" x="90" y="202.1509">Inject ProxyNeeds</text><polygon fill="#181818" points="457,235.6659,467,239.6659,457,243.6659,461,239.6659" style="stroke:#181818;stroke-width:1.0;"/><line style="stroke:#181818;stroke-width:1.0;" x1="221" x2="463" y1="239.6659" y2="239.6659"/><text fill="#000000" font-family="sans-serif" font-size="13" lengthAdjust="spacing" textLength="216" x="228" y="233.8569">WithOnServiceFound(callback tuple)</text><polygon fill="#181818" points="457,267.3719,467,271.3719,457,275.3719,461,271.3719" style="stroke:#181818;stroke-width:1.0;"/><line style="stroke:#181818;stroke-width:1.0;" x1="221" x2="463" y1="271.3719" y2="271.3719"/><text fill="#000000" font-family="sans-serif" font-size="13" lengthAdjust="spacing" textLength="224" x="228" y="265.5629">InitiateServiceDiscovery(stop_token?)</text><path d="M412.5,286.3719 L485.5,286.3719 L485.5,296.0779 L475.5,306.0779 L412.5,306.0779 L412.5,286.3719 " fill="#EEEEEE" style="stroke:#000000;stroke-width:1.5;"/><rect fill="none" height="114.8241" style="stroke:#000000;stroke-width:1.5;" width="864" x="412.5" y="286.3719"/><text fill="#000000" font-family="sans-serif" font-size="13" font-weight="bold" lengthAdjust="spacing" textLength="28" x="427.5" y="301.2689">loop</text><text fill="#000000" font-family="sans-serif" font-size="11" font-weight="bold" lengthAdjust="spacing" textLength="177" x="500.5" y="300.1308">[each ProxySpec in ProxyNeeds]</text><polygon fill="#181818" points="849,325.784,859,329.784,849,333.784,853,329.784" style="stroke:#181818;stroke-width:1.0;"/><line style="stroke:#181818;stroke-width:1.0;" x1="469" x2="855" y1="329.784" y2="329.784"/><text fill="#000000" font-family="sans-serif" font-size="13" lengthAdjust="spacing" textLength="112" x="476" y="323.975">Build(stop_token?)</text><polygon fill="#181818" points="1002,357.49,1012,361.49,1002,365.49,1006,361.49" style="stroke:#181818;stroke-width:1.0;"/><line style="stroke:#181818;stroke-width:1.0;" x1="861" x2="1008" y1="361.49" y2="361.49"/><text fill="#000000" font-family="sans-serif" font-size="13" lengthAdjust="spacing" textLength="129" x="868" y="355.681">Find(builder_callback)</text><polygon fill="#181818" points="1207,389.196,1217,393.196,1207,397.196,1211,393.196" style="stroke:#181818;stroke-width:1.0;"/><line style="stroke:#181818;stroke-width:1.0;" x1="1014" x2="1213" y1="393.196" y2="393.196"/><text fill="#000000" font-family="sans-serif" font-size="13" lengthAdjust="spacing" textLength="181" x="1021" y="387.387">StartFindService(find_callback)</text><polygon fill="#181818" points="232,427.902,222,431.902,232,435.902,228,431.902" style="stroke:#181818;stroke-width:1.0;"/><line style="stroke:#181818;stroke-width:1.0;stroke-dasharray:2.0,2.0;" x1="226" x2="468" y1="431.902" y2="431.902"/><text fill="#000000" font-family="sans-serif" font-size="13" lengthAdjust="spacing" textLength="108" x="238" y="426.093">RequestedProxies</text><path d="M185.5,446.902 L248.5,446.902 L248.5,456.608 L238.5,466.608 L185.5,466.608 L185.5,446.902 " fill="#EEEEEE" style="stroke:#000000;stroke-width:1.5;"/><rect fill="none" height="163.512" style="stroke:#000000;stroke-width:1.5;" width="484" x="185.5" y="446.902"/><text fill="#000000" font-family="sans-serif" font-size="13" font-weight="bold" lengthAdjust="spacing" textLength="18" x="200.5" y="461.799">alt</text><text fill="#000000" font-family="sans-serif" font-size="11" font-weight="bold" lengthAdjust="spacing" textLength="180" x="263.5" y="460.6609">[contains mandatory ProxySpec]</text><polygon fill="#181818" points="580.5,486.314,590.5,490.314,580.5,494.314,584.5,490.314" style="stroke:#181818;stroke-width:1.0;"/><line style="stroke:#181818;stroke-width:1.0;" x1="221" x2="586.5" y1="490.314" y2="490.314"/><text fill="#000000" font-family="sans-serif" font-size="13" lengthAdjust="spacing" textLength="234" x="228" y="484.505">WaitForMandatoryProxies(stop_token)</text><polygon fill="#181818" points="232,518.0201,222,522.0201,232,526.0201,228,522.0201" style="stroke:#181818;stroke-width:1.0;"/><line style="stroke:#181818;stroke-width:1.0;stroke-dasharray:2.0,2.0;" x1="226" x2="591.5" y1="522.0201" y2="522.0201"/><text fill="#000000" font-family="sans-serif" font-size="13" lengthAdjust="spacing" textLength="94" x="238" y="516.2111">ProxyContainer</text><line style="stroke:#000000;stroke-width:1.0;stroke-dasharray:2.0,2.0;" x1="185.5" x2="669.5" y1="531.0201" y2="531.0201"/><text fill="#000000" font-family="sans-serif" font-size="11" font-weight="bold" lengthAdjust="spacing" textLength="191" x="190.5" y="542.779">[only optional/multiple ProxySpec]</text><polygon fill="#181818" points="580.5,566.708,590.5,570.708,580.5,574.708,584.5,570.708" style="stroke:#181818;stroke-width:1.0;"/><line style="stroke:#181818;stroke-width:1.0;" x1="221" x2="586.5" y1="570.708" y2="570.708"/><text fill="#000000" font-family="sans-serif" font-size="13" lengthAdjust="spacing" textLength="123" x="228" y="564.899">GetProxyContainer()</text><polygon fill="#181818" points="232,598.414,222,602.414,232,606.414,228,602.414" style="stroke:#181818;stroke-width:1.0;"/><line style="stroke:#181818;stroke-width:1.0;stroke-dasharray:2.0,2.0;" x1="226" x2="591.5" y1="602.414" y2="602.414"/><text fill="#000000" font-family="sans-serif" font-size="13" lengthAdjust="spacing" textLength="94" x="238" y="596.605">ProxyContainer</text><rect fill="#EEEEEE" height="3" style="stroke:#EEEEEE;stroke-width:1.0;" width="1286.5" x="0" y="639.267"/><line style="stroke:#000000;stroke-width:1.0;" x1="0" x2="1286.5" y1="639.267" y2="639.267"/><line style="stroke:#000000;stroke-width:1.0;" x1="0" x2="1286.5" y1="642.267" y2="642.267"/><rect fill="#EEEEEE" height="25.706" style="stroke:#000000;stroke-width:2.0;" width="358" x="464.25" y="627.414"/><text fill="#000000" font-family="sans-serif" font-size="13" font-weight="bold" lengthAdjust="spacing" textLength="341" x="470.25" y="645.311">ProxyContainer is Built &amp; Service Discovery Initiated</text><path d="M169,668.12 L169,731.12 L639,731.12 L639,678.12 L629,668.12 L169,668.12 " fill="#FEFFDD" style="stroke:#181818;stroke-width:0.5;"/><path d="M629,668.12 L629,678.12 L639,678.12 L629,668.12 " fill="#FEFFDD" style="stroke:#181818;stroke-width:0.5;"/><text fill="#000000" font-family="sans-serif" font-size="13" lengthAdjust="spacing" textLength="439" x="175" y="687.017">App can stop service discovery only when it owns stop-capable ProxyData</text><text fill="#000000" font-family="sans-serif" font-size="13" lengthAdjust="spacing" textLength="240" x="175" y="704.723">(typically optional/multiple via Extract()).</text><text fill="#000000" font-family="sans-serif" font-size="13" lengthAdjust="spacing" textLength="449" x="175" y="722.429">Single/Variant follow mandatory semantics and do not expose explicit stop.</text><path d="M175.5,743.2381 L238.5,743.2381 L238.5,752.9441 L228.5,762.9441 L175.5,762.9441 L175.5,743.2381 " fill="#EEEEEE" style="stroke:#000000;stroke-width:1.5;"/><rect fill="none" height="713.2875" style="stroke:#000000;stroke-width:1.5;" width="630" x="175.5" y="743.2381"/><text fill="#000000" font-family="sans-serif" font-size="13" font-weight="bold" lengthAdjust="spacing" textLength="18" x="190.5" y="758.1351">alt</text><text fill="#000000" font-family="sans-serif" font-size="11" font-weight="bold" lengthAdjust="spacing" textLength="216" x="253.5" y="756.997">[App uses Extract() for ownership path]</text><path d="M185.5,769.9441 L248.5,769.9441 L248.5,779.6501 L238.5,789.6501 L185.5,789.6501 L185.5,769.9441 " fill="#EEEEEE" style="stroke:#000000;stroke-width:1.5;"/><rect fill="none" height="324.2998" style="stroke:#000000;stroke-width:1.5;" width="610" x="185.5" y="769.9441"/><text fill="#000000" font-family="sans-serif" font-size="13" font-weight="bold" lengthAdjust="spacing" textLength="18" x="200.5" y="784.8411">alt</text><text fill="#000000" font-family="sans-serif" font-size="11" font-weight="bold" lengthAdjust="spacing" textLength="84" x="263.5" y="783.703">[Single&lt;Proxy&gt;]</text><polygon fill="#181818" points="715.5,809.3561,725.5,813.3561,715.5,817.3561,719.5,813.3561" style="stroke:#181818;stroke-width:1.0;"/><line style="stroke:#181818;stroke-width:1.0;" x1="221" x2="721.5" y1="813.3561" y2="813.3561"/><text fill="#000000" font-family="sans-serif" font-size="13" lengthAdjust="spacing" textLength="100" x="228" y="807.5471">Extract&lt;Single&gt;()</text><polygon fill="#181818" points="232,841.0621,222,845.0621,232,849.0621,228,845.0621" style="stroke:#181818;stroke-width:1.0;"/><line style="stroke:#181818;stroke-width:1.0;stroke-dasharray:2.0,2.0;" x1="226" x2="726.5" y1="845.0621" y2="845.0621"/><text fill="#000000" font-family="sans-serif" font-size="13" lengthAdjust="spacing" textLength="177" x="238" y="839.2531">SingleInstanceHolder&lt;Proxy&gt;</text><line style="stroke:#000000;stroke-width:1.0;stroke-dasharray:2.0,2.0;" x1="185.5" x2="795.5" y1="854.0621" y2="854.0621"/><text fill="#000000" font-family="sans-serif" font-size="11" font-weight="bold" lengthAdjust="spacing" textLength="96" x="190.5" y="865.821">[Multiple&lt;Proxy&gt;]</text><polygon fill="#181818" points="715.5,889.75,725.5,893.75,715.5,897.75,719.5,893.75" style="stroke:#181818;stroke-width:1.0;"/><line style="stroke:#181818;stroke-width:1.0;" x1="221" x2="721.5" y1="893.75" y2="893.75"/><text fill="#000000" font-family="sans-serif" font-size="13" lengthAdjust="spacing" textLength="113" x="228" y="887.941">Extract&lt;Multiple&gt;()</text><polygon fill="#181818" points="232,921.456,222,925.456,232,929.456,228,925.456" style="stroke:#181818;stroke-width:1.0;"/><line style="stroke:#181818;stroke-width:1.0;stroke-dasharray:2.0,2.0;" x1="226" x2="726.5" y1="925.456" y2="925.456"/><text fill="#000000" font-family="sans-serif" font-size="13" lengthAdjust="spacing" textLength="161" x="238" y="919.647">MultipleProxyData&lt;Proxy&gt;</text><line style="stroke:#000000;stroke-width:1.0;stroke-dasharray:2.0,2.0;" x1="185.5" x2="795.5" y1="934.456" y2="934.456"/><text fill="#000000" font-family="sans-serif" font-size="11" font-weight="bold" lengthAdjust="spacing" textLength="99" x="190.5" y="946.215">[Optional&lt;Proxy&gt;]</text><polygon fill="#181818" points="715.5,970.1439,725.5,974.1439,715.5,978.1439,719.5,974.1439" style="stroke:#181818;stroke-width:1.0;"/><line style="stroke:#181818;stroke-width:1.0;" x1="221" x2="721.5" y1="974.1439" y2="974.1439"/><text fill="#000000" font-family="sans-serif" font-size="13" lengthAdjust="spacing" textLength="116" x="228" y="968.3349">Extract&lt;Optional&gt;()</text><polygon fill="#181818" points="232,1001.85,222,1005.85,232,1009.85,228,1005.85" style="stroke:#181818;stroke-width:1.0;"/><line style="stroke:#181818;stroke-width:1.0;stroke-dasharray:2.0,2.0;" x1="226" x2="726.5" y1="1005.85" y2="1005.85"/><text fill="#000000" font-family="sans-serif" font-size="13" lengthAdjust="spacing" textLength="164" x="238" y="1000.041">OptionalProxyData&lt;Proxy&gt;</text><line style="stroke:#000000;stroke-width:1.0;stroke-dasharray:2.0,2.0;" x1="185.5" x2="795.5" y1="1014.85" y2="1014.85"/><text fill="#000000" font-family="sans-serif" font-size="11" font-weight="bold" lengthAdjust="spacing" textLength="101" x="190.5" y="1026.6089">[Variant&lt;Proxy...&gt;]</text><polygon fill="#181818" points="715.5,1050.5379,725.5,1054.5379,715.5,1058.5379,719.5,1054.5379" style="stroke:#181818;stroke-width:1.0;"/><line style="stroke:#181818;stroke-width:1.0;" x1="221" x2="721.5" y1="1054.5379" y2="1054.5379"/><text fill="#000000" font-family="sans-serif" font-size="13" lengthAdjust="spacing" textLength="107" x="228" y="1048.7289">Extract&lt;Variant&gt;()</text><polygon fill="#181818" points="232,1082.2439,222,1086.2439,232,1090.2439,228,1086.2439" style="stroke:#181818;stroke-width:1.0;"/><line style="stroke:#181818;stroke-width:1.0;stroke-dasharray:2.0,2.0;" x1="226" x2="726.5" y1="1086.2439" y2="1086.2439"/><text fill="#000000" font-family="sans-serif" font-size="13" lengthAdjust="spacing" textLength="65" x="238" y="1080.4349">variant&lt;...&gt;</text><line style="stroke:#000000;stroke-width:1.0;stroke-dasharray:2.0,2.0;" x1="175.5" x2="805.5" y1="1102.2439" y2="1102.2439"/><text fill="#000000" font-family="sans-serif" font-size="11" font-weight="bold" lengthAdjust="spacing" textLength="204" x="180.5" y="1114.0028">[App uses Get() for non-owning path]</text><path d="M185.5,1125.2258 L248.5,1125.2258 L248.5,1134.9318 L238.5,1144.9318 L185.5,1144.9318 L185.5,1125.2258 " fill="#EEEEEE" style="stroke:#000000;stroke-width:1.5;"/><rect fill="none" height="324.2998" style="stroke:#000000;stroke-width:1.5;" width="610" x="185.5" y="1125.2258"/><text fill="#000000" font-family="sans-serif" font-size="13" font-weight="bold" lengthAdjust="spacing" textLength="18" x="200.5" y="1140.1228">alt</text><text fill="#000000" font-family="sans-serif" font-size="11" font-weight="bold" lengthAdjust="spacing" textLength="84" x="263.5" y="1138.9847">[Single&lt;Proxy&gt;]</text><polygon fill="#181818" points="715.5,1164.6378,725.5,1168.6378,715.5,1172.6378,719.5,1168.6378" style="stroke:#181818;stroke-width:1.0;"/><line style="stroke:#181818;stroke-width:1.0;" x1="221" x2="721.5" y1="1168.6378" y2="1168.6378"/><text fill="#000000" font-family="sans-serif" font-size="13" lengthAdjust="spacing" textLength="79" x="228" y="1162.8288">Get&lt;Single&gt;()</text><polygon fill="#181818" points="232,1196.3438,222,1200.3438,232,1204.3438,228,1200.3438" style="stroke:#181818;stroke-width:1.0;"/><line style="stroke:#181818;stroke-width:1.0;stroke-dasharray:2.0,2.0;" x1="226" x2="726.5" y1="1200.3438" y2="1200.3438"/><text fill="#000000" font-family="sans-serif" font-size="13" lengthAdjust="spacing" textLength="187" x="238" y="1194.5348">SingleInstanceHolder&lt;Proxy&gt;&amp;</text><line style="stroke:#000000;stroke-width:1.0;stroke-dasharray:2.0,2.0;" x1="185.5" x2="795.5" y1="1209.3438" y2="1209.3438"/><text fill="#000000" font-family="sans-serif" font-size="11" font-weight="bold" lengthAdjust="spacing" textLength="96" x="190.5" y="1221.1027">[Multiple&lt;Proxy&gt;]</text><polygon fill="#181818" points="715.5,1245.0317,725.5,1249.0317,715.5,1253.0317,719.5,1249.0317" style="stroke:#181818;stroke-width:1.0;"/><line style="stroke:#181818;stroke-width:1.0;" x1="221" x2="721.5" y1="1249.0317" y2="1249.0317"/><text fill="#000000" font-family="sans-serif" font-size="13" lengthAdjust="spacing" textLength="92" x="228" y="1243.2227">Get&lt;Multiple&gt;()</text><polygon fill="#181818" points="232,1276.7377,222,1280.7377,232,1284.7377,228,1280.7377" style="stroke:#181818;stroke-width:1.0;"/><line style="stroke:#181818;stroke-width:1.0;stroke-dasharray:2.0,2.0;" x1="226" x2="726.5" y1="1280.7377" y2="1280.7377"/><text fill="#000000" font-family="sans-serif" font-size="13" lengthAdjust="spacing" textLength="182" x="238" y="1274.9287">MultiInstanceHolder&lt;Proxy&gt;&amp;</text><line style="stroke:#000000;stroke-width:1.0;stroke-dasharray:2.0,2.0;" x1="185.5" x2="795.5" y1="1289.7377" y2="1289.7377"/><text fill="#000000" font-family="sans-serif" font-size="11" font-weight="bold" lengthAdjust="spacing" textLength="99" x="190.5" y="1301.4967">[Optional&lt;Proxy&gt;]</text><polygon fill="#181818" points="715.5,1325.4256,725.5,1329.4256,715.5,1333.4256,719.5,1329.4256" style="stroke:#181818;stroke-width:1.0;"/><line style="stroke:#181818;stroke-width:1.0;" x1="221" x2="721.5" y1="1329.4256" y2="1329.4256"/><text fill="#000000" font-family="sans-serif" font-size="13" lengthAdjust="spacing" textLength="95" x="228" y="1323.6166">Get&lt;Optional&gt;()</text><polygon fill="#181818" points="232,1357.1317,222,1361.1317,232,1365.1317,228,1361.1317" style="stroke:#181818;stroke-width:1.0;"/><line style="stroke:#181818;stroke-width:1.0;stroke-dasharray:2.0,2.0;" x1="226" x2="726.5" y1="1361.1317" y2="1361.1317"/><text fill="#000000" font-family="sans-serif" font-size="13" lengthAdjust="spacing" textLength="134" x="238" y="1355.3227">ProxyFuture&lt;Proxy&gt;&amp;</text><line style="stroke:#000000;stroke-width:1.0;stroke-dasharray:2.0,2.0;" x1="185.5" x2="795.5" y1="1370.1317" y2="1370.1317"/><text fill="#000000" font-family="sans-serif" font-size="11" font-weight="bold" lengthAdjust="spacing" textLength="101" x="190.5" y="1381.8906">[Variant&lt;Proxy...&gt;]</text><polygon fill="#181818" points="715.5,1405.8196,725.5,1409.8196,715.5,1413.8196,719.5,1409.8196" style="stroke:#181818;stroke-width:1.0;"/><line style="stroke:#181818;stroke-width:1.0;" x1="221" x2="721.5" y1="1409.8196" y2="1409.8196"/><text fill="#000000" font-family="sans-serif" font-size="13" lengthAdjust="spacing" textLength="86" x="228" y="1404.0106">Get&lt;Variant&gt;()</text><polygon fill="#181818" points="232,1437.5256,222,1441.5256,232,1445.5256,228,1441.5256" style="stroke:#181818;stroke-width:1.0;"/><line style="stroke:#181818;stroke-width:1.0;stroke-dasharray:2.0,2.0;" x1="226" x2="726.5" y1="1441.5256" y2="1441.5256"/><text fill="#000000" font-family="sans-serif" font-size="13" lengthAdjust="spacing" textLength="65" x="238" y="1435.7166">variant&lt;...&gt;</text><path d="M179,1468.5256 L179,1513.5256 L764,1513.5256 L764,1478.5256 L754,1468.5256 L179,1468.5256 " fill="#FEFFDD" style="stroke:#181818;stroke-width:0.5;"/><path d="M754,1468.5256 L754,1478.5256 L764,1478.5256 L754,1468.5256 " fill="#FEFFDD" style="stroke:#181818;stroke-width:0.5;"/><text fill="#000000" font-family="sans-serif" font-size="13" lengthAdjust="spacing" textLength="393" x="266.5" y="1487.4226">Service discovery lifecycle is tied to internal stop action ownership.</text><text fill="#000000" font-family="sans-serif" font-size="13" lengthAdjust="spacing" textLength="401" x="266.5" y="1505.1286">For ownership-centric control, prefer Extract() for optional/multiple.</text><!--SRC=[dLRRJXin47ttLrXKGedKf6-bGa1LADiYzQP6QX_wW8ntGboClVLE0ldxpjZhlOH0GnD5kskVcJEUCpCRD6X1pY2iZ0RvtjJQho2iQUNF4fm68UeRuoeLrAsicxLlAg3Hfb8EJvM-kGv-wSepRtsGBue3_lx3o8SIGcFmEdws67moS_ev6A0FukSfz6P0vmL_XQWwVhdthgeAfT67zPvKjVpkFSeNPyNvcw9u08m8kcu7V0l-Vlq5eApx3liBZ-4xu13ndKzK8vGCDP1mxU8MRsVUeQAZXuXidxOWJvV6KYvFLGqHspmFaOLnvGo3GhXEXyaFMnn-z6mVKUbMY5-JavJFGmvbRgwN0KHSe8r-NXWGW3mVDGHqrkbqUZ8QYm5iqZdiajTwP64EvONx3Hhx-uAipOhSCa88XcL-mlyqkFZgcgelk5f6MbbxHSKZSLbP66zQN3Y3XjmrDcsZZ6hqrINw6t1lnq9Oxoi9IYzIBBCAj3Ik7rXoI9wRv9FlU3Tqb3S9bzDFG9PcT9MsBdF0Oz4Y29ra8EmCIQsePOfuDAVxdX6uKkHWsZnkrXwbqQBKgQHgUQjSgQ8exUbodbfBpguoMFZmEQCRPxqJZaM7xzY7rIp0rY2zislfApJUAVlgTcdHa3nFyty07BeQxSR76Ja-tbYM9lK9olqjOpANHIcFZuLmdkgDDvZWPQzfcKyh9pa3DBAIbxBr4Wzvjm0d3Kf_Hvbcu4IhIbtbmxvNgCG8rvLX3RVbP6MKFB-dMj0u6e-dOcRSjOLNFrGmtB5pRws_wsbO0zrJGzUIbcJf9OKluRxob7QwM6frZ85CEJMy2waU-3JB6kgEZPm73Xn2lJ2Lh1Gk8ZA5S1GFS9Abwb9xc3qS9I3tVhVR2PLsBroDYaPzAl7iD5R9voO7Ep1bw6DSURzD-e3eQvFr7OWoz36YlB-Tg54jhV5OV8gg0J_6j6fyHJTSvP6XLP7QfL7GUJSX5IdRpv2GpFzVllsTzMEQdRHxYcS7-PZdNz95wsA9z6eR-jz9DMPujc8ycpR6IpUvPWycYgM_GtgjQIhG-493ymazlOWG0XqhZI5-GNhNTUrK5FqcdcXm68oEqpzu-r9M0UR4lT7qcsEeFonA6Bo5_m80]--></g></svg>