<svg width="3770" height="2331" xmlns="http://www.w3.org/2000/svg" xmlns:xlink="http://www.w3.org/1999/xlink" overflow="hidden"><defs><clipPath id="clip0"><rect x="148" y="68" width="3770" height="2331"/></clipPath><linearGradient x1="406" y1="364" x2="406" y2="1997" gradientUnits="userSpaceOnUse" spreadMethod="reflect" id="fill1"><stop offset="0" stop-color="#9B9B9B"/><stop offset="0.5" stop-color="#8E8E8E"/><stop offset="1" stop-color="#797979"/></linearGradient><linearGradient x1="1539" y1="364" x2="1539" y2="946" gradientUnits="userSpaceOnUse" spreadMethod="reflect" id="fill2"><stop offset="0" stop-color="#F7BDA4"/><stop offset="0.5" stop-color="#F5B195"/><stop offset="1" stop-color="#F8A581"/></linearGradient><linearGradient x1="2932.5" y1="92.0001" x2="2932.5" y2="293" gradientUnits="userSpaceOnUse" spreadMethod="reflect" id="fill3"><stop offset="0" stop-color="#D2D2D2"/><stop offset="0.5" stop-color="#C8C8C8"/><stop offset="1" stop-color="#C0C0C0"/></linearGradient><linearGradient x1="2932.5" y1="1333" x2="2932.5" y2="1534" gradientUnits="userSpaceOnUse" spreadMethod="reflect" id="fill4"><stop offset="0" stop-color="#B5D5A7"/><stop offset="0.5" stop-color="#AACE99"/><stop offset="1" stop-color="#9CCA86"/></linearGradient><linearGradient x1="2932.5" y1="1796" x2="2932.5" y2="1997" gradientUnits="userSpaceOnUse" spreadMethod="reflect" id="fill5"><stop offset="0" stop-color="#A8B7DF"/><stop offset="0.5" stop-color="#9AABD9"/><stop offset="1" stop-color="#879ED7"/></linearGradient><linearGradient x1="2707.5" y1="419" x2="2707.5" y2="914" gradientUnits="userSpaceOnUse" spreadMethod="reflect" id="fill6"><stop offset="0" stop-color="#FFDD9C"/><stop offset="0.5" stop-color="#FFD78E"/><stop offset="1" stop-color="#FFD479"/></linearGradient></defs><g clip-path="url(#clip0)" transform="translate(-148 -68)"><text font-family="Calibri,Calibri_MSFontService,sans-serif" font-weight="400" font-size="83" transform="matrix(1 0 0 1 703.562 676)">Search &amp; Create<tspan font-size="83" x="119.396" y="99">Interface</tspan></text><rect x="149" y="364" width="514" height="1633" stroke="#000000" stroke-width="2.29167" stroke-miterlimit="8" fill="url(#fill1)"/><text font-family="Calibri,Calibri_MSFontService,sans-serif" font-weight="400" font-size="83" transform="matrix(1 0 0 1 328.93 1208)">Use<tspan font-size="83" x="126.042" y="0">r</tspan></text><rect x="1282" y="364" width="514" height="582" stroke="#ED7D31" stroke-width="2.29167" stroke-miterlimit="8" fill="url(#fill2)"/><text font-family="Calibri,Calibri_MSFontService,sans-serif" font-weight="400" font-size="83" transform="matrix(1 0 0 1 1415.58 683)">Factory</text><rect x="2059" y="92.0001" width="1747" height="201" stroke="#A5A5A5" stroke-width="2.29167" stroke-miterlimit="8" fill="url(#fill3)"/><text font-family="Calibri,Calibri_MSFontService,sans-serif" font-weight="400" font-size="83" transform="matrix(1 0 0 1 2483.82 170)">Middleware <tspan font-size="83" x="421.552" y="0">Specific</tspan><tspan font-size="83" x="695.979" y="0">Utility</tspan></text><rect x="2059" y="1333" width="1747" height="201" stroke="#70AD47" stroke-width="2.29167" stroke-miterlimit="8" fill="url(#fill4)"/><text font-family="Calibri,Calibri_MSFontService,sans-serif" font-weight="400" font-size="83" transform="matrix(1 0 0 1 2619.69 1412)">Service Interaction</text><rect x="2059" y="1796" width="1747" height="201" stroke="#4472C4" stroke-width="2.29167" stroke-miterlimit="8" fill="url(#fill5)"/><text font-family="Calibri,Calibri_MSFontService,sans-serif" font-weight="400" font-size="83" transform="matrix(1 0 0 1 2466.94 1874)">Business Object Abstraction</text><rect x="2415" y="419" width="585" height="495" stroke="#FFC000" stroke-width="2.29167" stroke-miterlimit="8" fill="url(#fill6)"/><text font-family="Calibri,Calibri_MSFontService,sans-serif" font-weight="400" font-size="83" transform="matrix(1 0 0 1 2635.39 645)">Find<tspan font-size="83" x="-65.6333" y="99">Strategy</tspan></text><path d="M663.5 696.063 1259.52 696.063 1259.52 702.938 663.5 702.938ZM1254.93 685.75 1282.43 699.5 1254.93 713.25Z"/><text font-family="Calibri,Calibri_MSFontService,sans-serif" font-weight="400" font-size="83" transform="matrix(1 0 0 1 1831.68 644)">Search &amp; Create<tspan font-size="83" x="119.396" y="99">Interface</tspan></text><path d="M1796.5 664.063 2392.52 664.063 2392.52 670.938 1796.5 670.938ZM2387.93 653.75 2415.43 667.5 2387.93 681.25Z"/><path d="M1158.5 823.5 1457.5 823.5 1457.5 1125.67 1407.67 1175.5 1158.5 1175.5Z" fill="#FFFFFF" fill-rule="evenodd"/><path d="M1407.67 1175.5 1417.63 1135.63 1457.5 1125.67Z" fill="#CDCDCD" fill-rule="evenodd"/><path d="M1407.67 1175.5 1417.63 1135.63 1457.5 1125.67 1407.67 1175.5 1158.5 1175.5 1158.5 823.5 1457.5 823.5 1457.5 1125.67" stroke="#000000" stroke-width="4.58333" stroke-miterlimit="8" fill="none" fill-rule="evenodd"/><text font-family="Calibri,Calibri_MSFontService,sans-serif" font-weight="400" font-size="55" transform="matrix(1 0 0 1 1205.28 926)">Common<tspan font-size="55" x="7.49378" y="66">Creation </tspan><tspan font-size="55" x="45.2604" y="132">Logic</tspan></text><path d="M2256.5 807.5 2555.5 807.5 2555.5 1109.67 2505.67 1159.5 2256.5 1159.5Z" fill="#FFFFFF" fill-rule="evenodd"/><path d="M2505.67 1159.5 2515.63 1119.63 2555.5 1109.67Z" fill="#CDCDCD" fill-rule="evenodd"/><path d="M2505.67 1159.5 2515.63 1119.63 2555.5 1109.67 2505.67 1159.5 2256.5 1159.5 2256.5 807.5 2555.5 807.5 2555.5 1109.67" stroke="#000000" stroke-width="4.58333" stroke-miterlimit="8" fill="none" fill-rule="evenodd"/><text font-family="Calibri,Calibri_MSFontService,sans-serif" font-weight="400" font-size="55" transform="matrix(1 0 0 1 2320.58 910)">Specific<tspan font-size="55" x="-9.69385" y="66">Creation</tspan><tspan font-size="55" x="28.0728" y="132">Logic</tspan></text><path d="M2710.94 914.456 2715.98 1310.79 2709.11 1310.88 2704.06 914.544ZM2726.24 1306.07 2712.84 1333.75 2698.74 1306.42Z"/><path d="M3.4375-1.19188e-06 3.43785 1017.93-3.43715 1017.93-3.4375 1.19188e-06ZM13.7504 1013.35 0.000360892 1040.85-13.7496 1013.35Z" transform="matrix(1 0 0 -1 3315.5 1334.35)"/><path d="M2806.94 1534.5 2806.94 1774.13 2800.06 1774.13 2800.06 1534.5ZM2817.25 1769.55 2803.5 1797.05 2789.75 1769.55Z"/><path d="M0.017393-3.43746 1372.86 3.5089 1372.82 10.3838-0.017393 3.43746ZM1368.32-6.82666 1395.75 7.0623 1368.19 20.673Z" transform="matrix(1 0 0 -1 663.5 1441.56)"/><path d="M0.017393-3.43746 1372.86 3.5089 1372.82 10.3838-0.017393 3.43746ZM1368.32-6.82666 1395.75 7.0623 1368.19 20.673Z" transform="matrix(1 0 0 -1 663.5 1905.56)"/><text font-family="Calibri,Calibri_MSFontService,sans-serif" font-weight="400" font-size="83" transform="matrix(1 0 0 1 2722.83 1151)">Create</text><path d="M3.4375-9.79884e-06 3.4378 103.687-3.4372 103.687-3.4375 9.79884e-06ZM13.7503 99.1035 0.000360892 126.604-13.7497 99.1036Z" transform="matrix(1 0 0 -1 2707.5 420.104)"/><text font-family="Calibri,Calibri_MSFontService,sans-serif" font-weight="400" font-size="83" transform="matrix(1 0 0 1 2732.71 375)">utilize<tspan font-size="83" x="594.173" y="6">utilize</tspan><tspan font-size="83" x="81.4224" y="1267">Receives Bus</tspan><tspan font-size="83" x="510.01" y="1267">-</tspan><tspan font-size="83" x="535.218" y="1267">Data and</tspan><tspan font-size="83" x="81.4224" y="1366">Creates</tspan></text><rect x="3373.5" y="752.5" width="433" height="247" stroke="#2F528F" stroke-width="4.58333" stroke-miterlimit="8" fill="#44546A"/><text fill="#FFFFFF" font-family="Calibri,Calibri_MSFontService,sans-serif" font-weight="400" font-size="83" transform="matrix(1 0 0 1 3412.14 854)">Generated<tspan font-size="83" x="57.2459" y="99">Service</tspan></text><path d="M3.4375-3.71258e-06 3.43784 311.235-3.43716 311.235-3.4375 3.71258e-06ZM13.7503 306.652 0.000360892 334.152-13.7497 306.652Z" transform="matrix(1 0 0 -1 3610.5 1333.65)"/><path d="M3524.94 999.5 3524.94 1310.74 3518.06 1310.74 3518.06 999.5ZM3535.25 1306.15 3521.5 1333.65 3507.75 1306.15Z"/><text font-family="Calibri,Calibri_MSFontService,sans-serif" font-weight="400" font-size="83" transform="matrix(1 0 0 1 1177.45 1676)">Interact</text><path d="M1967.5 689.506C1967.5 527.683 2098.68 396.5 2260.51 396.5L3623.49 396.5C3785.32 396.5 3916.5 527.683 3916.5 689.506L3916.5 1861.49C3916.5 2023.32 3785.32 2154.5 3623.49 2154.5L2260.51 2154.5C2098.68 2154.5 1967.5 2023.32 1967.5 1861.49Z" stroke="#000000" stroke-width="3.4375" stroke-linejoin="round" stroke-miterlimit="10" fill="none" fill-rule="evenodd"/><path d="M3440.5 2044.5 3739.5 2044.5 3739.5 2346.67 3689.67 2396.5 3440.5 2396.5Z" fill="#FFFFFF" fill-rule="evenodd"/><path d="M3689.67 2396.5 3699.63 2356.63 3739.5 2346.67Z" fill="#CDCDCD" fill-rule="evenodd"/><path d="M3689.67 2396.5 3699.63 2356.63 3739.5 2346.67 3689.67 2396.5 3440.5 2396.5 3440.5 2044.5 3739.5 2044.5 3739.5 2346.67" stroke="#000000" stroke-width="4.58333" stroke-miterlimit="8" fill="none" fill-rule="evenodd"/><text font-family="Calibri,Calibri_MSFontService,sans-serif" font-weight="400" font-size="55" transform="matrix(1 0 0 1 3509.61 2180)">Service <tspan font-size="55" x="-3.18555" y="66">specific</tspan></text></g></svg>