<?xml version="1.0" encoding="us-ascii" standalone="no"?><svg xmlns="http://www.w3.org/2000/svg" xmlns:xlink="http://www.w3.org/1999/xlink" contentStyleType="text/css" height="1274px" preserveAspectRatio="none" style="width:1790px;height:1274px;background:#FFFFFF;" version="1.1" viewBox="0 0 1790 1274" width="1790px" zoomAndPan="magnify"><defs/><g><!--class ProvidedServicesContainer--><g id="elem_ProvidedServicesContainer"><rect codeLine="10" fill="#F1F1F1" height="295.8829" id="ProvidedServicesContainer" rx="2.5" ry="2.5" style="stroke:#181818;stroke-width:0.5;" width="644" x="430" y="553"/><ellipse cx="657.75" cy="569" fill="#ADD1B2" rx="11" ry="11" style="stroke:#181818;stroke-width:1.0;"/><path d="M660.7188,574.6406 Q660.1406,574.9375 659.5,575.0781 Q658.8594,575.2344 658.1563,575.2344 Q655.6563,575.2344 654.3281,573.5938 Q653.0156,571.9375 653.0156,568.8125 Q653.0156,565.6875 654.3281,564.0313 Q655.6563,562.375 658.1563,562.375 Q658.8594,562.375 659.5,562.5313 Q660.1563,562.6875 660.7188,562.9844 L660.7188,565.7031 Q660.0938,565.125 659.5,564.8594 Q658.9063,564.5781 658.2813,564.5781 Q656.9375,564.5781 656.25,565.6563 Q655.5625,566.7188 655.5625,568.8125 Q655.5625,570.9063 656.25,571.9844 Q656.9375,573.0469 658.2813,573.0469 Q658.9063,573.0469 659.5,572.7813 Q660.0938,572.5 660.7188,571.9219 L660.7188,574.6406 Z " fill="#000000"/><text fill="#000000" font-family="sans-serif" font-size="14" lengthAdjust="spacing" textLength="180" x="678.25" y="574.432">ProvidedServicesContainer</text><line style="stroke:#181818;stroke-width:0.5;" x1="431" x2="1073" y1="585" y2="585"/><ellipse cx="441" cy="600.034" fill="#84BE84" rx="3" ry="3" style="stroke:#038048;stroke-width:1.0;"/><text fill="#000000" font-family="sans-serif" font-size="14" lengthAdjust="spacing" textLength="188" x="450" y="603.9659">ProvidedServicesContainer()</text><ellipse cx="441" cy="628.6358" fill="#84BE84" rx="3" ry="3" style="stroke:#038048;stroke-width:1.0;"/><text fill="#000000" font-family="sans-serif" font-size="14" lengthAdjust="spacing" textLength="208" x="450" y="623.0339">Emplace&lt;ServiceType, Args...&gt;(</text><text fill="#000000" font-family="sans-serif" font-size="14" lengthAdjust="spacing" textLength="464" x="474" y="642.1018">ServiceIdentifierView service_identifier, Args&amp;&amp;... args): Result&lt;void&gt;</text><ellipse cx="441" cy="657.2377" fill="#84BE84" rx="3" ry="3" style="stroke:#038048;stroke-width:1.0;"/><text fill="#000000" font-family="sans-serif" font-size="14" lengthAdjust="spacing" textLength="618" x="450" y="661.1697">Extract&lt;ServiceType&gt;(ServiceIdentifierView service_identifier): std::unique_ptr&lt;ServiceType&gt;</text><ellipse cx="441" cy="676.3056" fill="#84BE84" rx="3" ry="3" style="stroke:#038048;stroke-width:1.0;"/><text fill="#000000" font-family="sans-serif" font-size="14" lengthAdjust="spacing" textLength="357" x="450" y="680.2376">Extract&lt;ServiceType&gt;(): std::unique_ptr&lt;ServiceType&gt;</text><ellipse cx="441" cy="695.3735" fill="#84BE84" rx="3" ry="3" style="stroke:#038048;stroke-width:1.0;"/><text fill="#000000" font-family="sans-serif" font-size="14" lengthAdjust="spacing" textLength="484" x="450" y="699.3055">Get&lt;ServiceType&gt;(ServiceIdentifierView service_identifier): ServiceType*</text><ellipse cx="441" cy="714.4415" fill="#84BE84" rx="3" ry="3" style="stroke:#038048;stroke-width:1.0;"/><text fill="#000000" font-family="sans-serif" font-size="14" lengthAdjust="spacing" textLength="223" x="450" y="718.3734">Get&lt;ServiceType&gt;(): ServiceType*</text><ellipse cx="441" cy="733.5094" fill="#84BE84" rx="3" ry="3" style="stroke:#038048;stroke-width:1.0;"/><text fill="#000000" font-family="sans-serif" font-size="14" lengthAdjust="spacing" textLength="427" x="450" y="737.4414">Has&lt;ServiceType&gt;(ServiceIdentifierView service_identifier): bool</text><ellipse cx="441" cy="752.5773" fill="#84BE84" rx="3" ry="3" style="stroke:#038048;stroke-width:1.0;"/><text fill="#000000" font-family="sans-serif" font-size="14" lengthAdjust="spacing" textLength="166" x="450" y="756.5093">Has&lt;ServiceType&gt;(): bool</text><ellipse cx="441" cy="771.6452" fill="#84BE84" rx="3" ry="3" style="stroke:#038048;stroke-width:1.0;"/><text fill="#000000" font-family="sans-serif" font-size="14" lengthAdjust="spacing" textLength="109" x="450" y="775.5772">Size(): std::size_t</text><ellipse cx="441" cy="790.7131" fill="#84BE84" rx="3" ry="3" style="stroke:#038048;stroke-width:1.0;"/><text fill="#000000" font-family="sans-serif" font-size="14" lengthAdjust="spacing" textLength="193" x="450" y="794.6451">Reserve(std::size_t size): void</text><ellipse cx="441" cy="809.781" fill="#84BE84" rx="3" ry="3" style="stroke:#038048;stroke-width:1.0;"/><text fill="#000000" font-family="sans-serif" font-size="14" lengthAdjust="spacing" textLength="91" x="450" y="813.713">StopAll(): void</text><line style="stroke:#181818;stroke-width:1.0;" x1="431" x2="1073" y1="821.815" y2="821.815"/><rect fill="none" height="6" style="stroke:#C82930;stroke-width:1.0;" width="6" x="438" y="833.849"/><text fill="#000000" font-family="sans-serif" font-size="14" lengthAdjust="spacing" textLength="608" x="450" y="840.7809">services_: std::vector&lt;std::pair&lt;ServiceIdentifierType, std::unique_ptr&lt;ManagedService&gt;&gt;&gt;</text></g><!--class ManagedService--><g id="elem_ManagedService"><rect codeLine="26" fill="#F1F1F1" height="105.2038" id="ManagedService" rx="2.5" ry="2.5" style="stroke:#181818;stroke-width:0.5;" width="154" x="468" y="1162"/><ellipse cx="491.55" cy="1178" fill="#B4A7E5" rx="11" ry="11" style="stroke:#181818;stroke-width:1.0;"/><path d="M487.4719,1173.7656 L487.4719,1171.6094 L494.8625,1171.6094 L494.8625,1173.7656 L492.3938,1173.7656 L492.3938,1181.8438 L494.8625,1181.8438 L494.8625,1184 L487.4719,1184 L487.4719,1181.8438 L489.9406,1181.8438 L489.9406,1173.7656 L487.4719,1173.7656 Z " fill="#000000"/><text fill="#000000" font-family="sans-serif" font-size="14" font-style="italic" lengthAdjust="spacing" textLength="103" x="507.45" y="1183.432">ManagedService</text><line style="stroke:#181818;stroke-width:0.5;" x1="469" x2="621" y1="1194" y2="1194"/><line style="stroke:#181818;stroke-width:0.5;" x1="469" x2="621" y1="1202" y2="1202"/><ellipse cx="479" cy="1217.034" fill="#84BE84" rx="3" ry="3" style="stroke:#038048;stroke-width:1.0;"/><text fill="#000000" font-family="sans-serif" font-size="14" lengthAdjust="spacing" textLength="120" x="488" y="1220.9659">ManagedService()</text><ellipse cx="479" cy="1236.1019" fill="#84BE84" rx="3" ry="3" style="stroke:#038048;stroke-width:1.0;"/><text fill="#000000" font-family="sans-serif" font-size="14" font-style="italic" lengthAdjust="spacing" textLength="128" x="488" y="1240.0339">Start(): Result&lt;void&gt;</text><ellipse cx="479" cy="1255.1698" fill="#84BE84" rx="3" ry="3" style="stroke:#038048;stroke-width:1.0;"/><text fill="#000000" font-family="sans-serif" font-size="14" font-style="italic" lengthAdjust="spacing" textLength="71" x="488" y="1259.1018">Stop(): void</text></g><!--class AppFactory--><g id="elem_AppFactory"><rect codeLine="32" fill="#ADFF2F" height="124.2717" id="AppFactory" rx="2.5" ry="2.5" style="stroke:#181818;stroke-width:0.5;" width="482" x="1301" y="351.5"/><ellipse cx="1500.25" cy="367.5" fill="#ADD1B2" rx="11" ry="11" style="stroke:#181818;stroke-width:1.0;"/><path d="M1503.2188,373.1406 Q1502.6406,373.4375 1502,373.5781 Q1501.3594,373.7344 1500.6563,373.7344 Q1498.1563,373.7344 1496.8281,372.0938 Q1495.5156,370.4375 1495.5156,367.3125 Q1495.5156,364.1875 1496.8281,362.5313 Q1498.1563,360.875 1500.6563,360.875 Q1501.3594,360.875 1502,361.0313 Q1502.6563,361.1875 1503.2188,361.4844 L1503.2188,364.2031 Q1502.5938,363.625 1502,363.3594 Q1501.4063,363.0781 1500.7813,363.0781 Q1499.4375,363.0781 1498.75,364.1563 Q1498.0625,365.2188 1498.0625,367.3125 Q1498.0625,369.4063 1498.75,370.4844 Q1499.4375,371.5469 1500.7813,371.5469 Q1501.4063,371.5469 1502,371.2813 Q1502.5938,371 1503.2188,370.4219 L1503.2188,373.1406 Z " fill="#000000"/><text fill="#000000" font-family="sans-serif" font-size="14" lengthAdjust="spacing" textLength="75" x="1520.75" y="372.932">AppFactory</text><line style="stroke:#181818;stroke-width:0.5;" x1="1302" x2="1782" y1="383.5" y2="383.5"/><line style="stroke:#181818;stroke-width:0.5;" x1="1302" x2="1782" y1="391.5" y2="391.5"/><ellipse cx="1312" cy="406.534" fill="#84BE84" rx="3" ry="3" style="stroke:#038048;stroke-width:1.0;"/><text fill="#000000" font-family="sans-serif" font-size="14" lengthAdjust="spacing" textLength="420" x="1321" y="410.4659">CreateServiceReactor3(&lt;...&gt;): std::shared_ptr&lt;ServiceReactor3&gt;</text><ellipse cx="1312" cy="425.6019" fill="#84BE84" rx="3" ry="3" style="stroke:#038048;stroke-width:1.0;"/><text fill="#000000" font-family="sans-serif" font-size="14" lengthAdjust="spacing" textLength="420" x="1321" y="429.5339">CreateServiceReactor5(&lt;...&gt;): std::shared_ptr&lt;ServiceReactor5&gt;</text><ellipse cx="1312" cy="454.2038" fill="#84BE84" rx="3" ry="3" style="stroke:#038048;stroke-width:1.0;"/><text fill="#000000" font-family="sans-serif" font-size="14" lengthAdjust="spacing" textLength="162" x="1321" y="448.6018">CreateProvidedServices(</text><text fill="#000000" font-family="sans-serif" font-size="14" lengthAdjust="spacing" textLength="432" x="1345" y="467.6697">std::shared_ptr&lt;ServiceReactor&gt;... service_reactors): ServiceData</text></g><!--class App--><g id="elem_App"><rect codeLine="38" fill="#ADFF2F" height="48" id="App" rx="2.5" ry="2.5" style="stroke:#181818;stroke-width:0.5;" width="59" x="1201.5" y="7"/><ellipse cx="1216.5" cy="23" fill="#ADD1B2" rx="11" ry="11" style="stroke:#181818;stroke-width:1.0;"/><path d="M1219.4688,28.6406 Q1218.8906,28.9375 1218.25,29.0781 Q1217.6094,29.2344 1216.9063,29.2344 Q1214.4063,29.2344 1213.0781,27.5938 Q1211.7656,25.9375 1211.7656,22.8125 Q1211.7656,19.6875 1213.0781,18.0313 Q1214.4063,16.375 1216.9063,16.375 Q1217.6094,16.375 1218.25,16.5313 Q1218.9063,16.6875 1219.4688,16.9844 L1219.4688,19.7031 Q1218.8438,19.125 1218.25,18.8594 Q1217.6563,18.5781 1217.0313,18.5781 Q1215.6875,18.5781 1215,19.6563 Q1214.3125,20.7188 1214.3125,22.8125 Q1214.3125,24.9063 1215,25.9844 Q1215.6875,27.0469 1217.0313,27.0469 Q1217.6563,27.0469 1218.25,26.7813 Q1218.8438,26.5 1219.4688,25.9219 L1219.4688,28.6406 Z " fill="#000000"/><text fill="#000000" font-family="sans-serif" font-size="14" lengthAdjust="spacing" textLength="27" x="1230.5" y="28.432">App</text><line style="stroke:#181818;stroke-width:0.5;" x1="1202.5" x2="1259.5" y1="39" y2="39"/><line style="stroke:#181818;stroke-width:0.5;" x1="1202.5" x2="1259.5" y1="47" y2="47"/></g><!--class BusinessLogic--><g id="elem_BusinessLogic"><rect codeLine="41" fill="#ADFF2F" height="48" id="BusinessLogic" rx="2.5" ry="2.5" style="stroke:#181818;stroke-width:0.5;" width="131" x="1087.5" y="110"/><ellipse cx="1102.5" cy="126" fill="#ADD1B2" rx="11" ry="11" style="stroke:#181818;stroke-width:1.0;"/><path d="M1105.4688,131.6406 Q1104.8906,131.9375 1104.25,132.0781 Q1103.6094,132.2344 1102.9063,132.2344 Q1100.4063,132.2344 1099.0781,130.5938 Q1097.7656,128.9375 1097.7656,125.8125 Q1097.7656,122.6875 1099.0781,121.0313 Q1100.4063,119.375 1102.9063,119.375 Q1103.6094,119.375 1104.25,119.5313 Q1104.9063,119.6875 1105.4688,119.9844 L1105.4688,122.7031 Q1104.8438,122.125 1104.25,121.8594 Q1103.6563,121.5781 1103.0313,121.5781 Q1101.6875,121.5781 1101,122.6563 Q1100.3125,123.7188 1100.3125,125.8125 Q1100.3125,127.9063 1101,128.9844 Q1101.6875,130.0469 1103.0313,130.0469 Q1103.6563,130.0469 1104.25,129.7813 Q1104.8438,129.5 1105.4688,128.9219 L1105.4688,131.6406 Z " fill="#000000"/><text fill="#000000" font-family="sans-serif" font-size="14" lengthAdjust="spacing" textLength="99" x="1116.5" y="131.432">Business Logic</text><line style="stroke:#181818;stroke-width:0.5;" x1="1088.5" x2="1217.5" y1="142" y2="142"/><line style="stroke:#181818;stroke-width:0.5;" x1="1088.5" x2="1217.5" y1="150" y2="150"/></g><!--class ProvidedServiceData--><g id="elem_ProvidedServiceData"><rect codeLine="44" fill="#ADFF2F" height="162.4075" id="ProvidedServiceData" rx="2.5" ry="2.5" style="stroke:#181818;stroke-width:0.5;" width="417" x="214.5" y="332.5"/><ellipse cx="349.75" cy="348.5" fill="#F1F1F1" rx="11" ry="11" style="stroke:#181818;stroke-width:1.0;"/><path d="M349.2344,349.0625 Q347.375,348.3594 346.7188,347.5938 Q346.0781,346.8125 346.0781,345.5 Q346.0781,343.8125 347.1563,342.8438 Q348.2344,341.875 350.1094,341.875 Q350.9688,341.875 351.8125,342.0781 Q352.6719,342.2656 353.5156,342.6563 L353.5156,345.0469 Q352.7344,344.4844 351.9063,344.2031 Q351.0938,343.9063 350.2969,343.9063 Q349.4219,343.9063 348.9375,344.2656 Q348.4688,344.625 348.4688,345.2813 Q348.4688,345.7969 348.8125,346.1406 Q349.1563,346.4688 350.25,346.875 L351.3125,347.2813 Q352.7969,347.8281 353.5,348.7344 Q354.2188,349.6406 354.2188,351.0156 Q354.2188,352.8906 353.1094,353.8125 Q352,354.7344 349.75,354.7344 Q348.8281,354.7344 347.9063,354.5156 Q346.9844,354.2969 346.125,353.875 L346.125,351.3438 Q347.0938,352.0313 348.0156,352.375 Q348.9375,352.7188 349.8281,352.7188 Q350.7344,352.7188 351.2344,352.3125 Q351.7344,351.8906 351.7344,351.1563 Q351.7344,350.5938 351.3906,350.1875 Q351.0625,349.7656 350.4375,349.5156 L349.2344,349.0625 Z " fill="#000000"/><text fill="#000000" font-family="sans-serif" font-size="14" lengthAdjust="spacing" textLength="138" x="370.25" y="353.932">ProvidedServiceData</text><line style="stroke:#181818;stroke-width:0.5;" x1="215.5" x2="630.5" y1="364.5" y2="364.5"/><text fill="#000000" font-family="sans-serif" font-size="14" lengthAdjust="spacing" textLength="385" x="220.5" y="383.4659">accessor_for_service_one: amp::callback&lt;void(std::size_t)&gt;</text><text fill="#000000" font-family="sans-serif" font-size="14" lengthAdjust="spacing" textLength="387" x="220.5" y="402.5339">accessor_for_service_two: amp::callback&lt;void(std::string)&gt;</text><text fill="#000000" font-family="sans-serif" font-size="14" lengthAdjust="spacing" textLength="401" x="220.5" y="421.6018">reactor_for_service_three: std::shared_ptr&lt;ReactorService3&gt;</text><text fill="#000000" font-family="sans-serif" font-size="14" lengthAdjust="spacing" textLength="405" x="220.5" y="440.6697">accessor_for_service_four: amp::callback&lt;void(CustomType)&gt;</text><text fill="#000000" font-family="sans-serif" font-size="14" lengthAdjust="spacing" textLength="389" x="220.5" y="459.7376">reactor_for_service_five: std::shared_ptr&lt;ReactorService5&gt;</text><line style="stroke:#181818;stroke-width:1.0;" x1="215.5" x2="630.5" y1="467.8396" y2="467.8396"/><text fill="#000000" font-family="sans-serif" font-size="14" lengthAdjust="spacing" textLength="308" x="220.5" y="486.8055">provided_services: ProvidedServicesContainer</text></g><!--class SomeServiceSkeleton--><g id="elem_SomeServiceSkeleton"><rect codeLine="54" fill="#F1F1F1" height="61.412" id="SomeServiceSkeleton" rx="2.5" ry="2.5" style="stroke:#181818;stroke-width:0.5;" width="174" x="7" y="914"/><ellipse cx="22" cy="936.706" fill="#ADD1B2" rx="11" ry="11" style="stroke:#181818;stroke-width:1.0;"/><path d="M24.9688,942.3466 Q24.3906,942.6435 23.75,942.7841 Q23.1094,942.9404 22.4063,942.9404 Q19.9063,942.9404 18.5781,941.2998 Q17.2656,939.6435 17.2656,936.5185 Q17.2656,933.3935 18.5781,931.7373 Q19.9063,930.081 22.4063,930.081 Q23.1094,930.081 23.75,930.2373 Q24.4063,930.3935 24.9688,930.6904 L24.9688,933.4091 Q24.3438,932.831 23.75,932.5654 Q23.1563,932.2841 22.5313,932.2841 Q21.1875,932.2841 20.5,933.3623 Q19.8125,934.4248 19.8125,936.5185 Q19.8125,938.6123 20.5,939.6904 Q21.1875,940.7529 22.5313,940.7529 Q23.1563,940.7529 23.75,940.4873 Q24.3438,940.206 24.9688,939.6279 L24.9688,942.3466 Z " fill="#000000"/><text fill="#000000" font-family="sans-serif" font-size="12" font-style="italic" lengthAdjust="spacing" textLength="120" x="47" y="931.8281">&#171;AUTOSAR generated&#187;</text><text fill="#000000" font-family="sans-serif" font-size="14" lengthAdjust="spacing" textLength="142" x="36" y="950.31">SomeServiceSkeleton</text><line style="stroke:#181818;stroke-width:0.5;" x1="8" x2="180" y1="959.412" y2="959.412"/><line style="stroke:#181818;stroke-width:0.5;" x1="8" x2="180" y1="967.412" y2="967.412"/></g><!--class SomeService--><g id="elem_SomeService"><rect codeLine="57" fill="#ADFF2F" height="67.0679" id="SomeService" rx="2.5" ry="2.5" style="stroke:#181818;stroke-width:0.5;" width="336" x="377" y="1040"/><ellipse cx="498.25" cy="1056" fill="#ADD1B2" rx="11" ry="11" style="stroke:#181818;stroke-width:1.0;"/><path d="M501.2188,1061.6406 Q500.6406,1061.9375 500,1062.0781 Q499.3594,1062.2344 498.6563,1062.2344 Q496.1563,1062.2344 494.8281,1060.5938 Q493.5156,1058.9375 493.5156,1055.8125 Q493.5156,1052.6875 494.8281,1051.0313 Q496.1563,1049.375 498.6563,1049.375 Q499.3594,1049.375 500,1049.5313 Q500.6563,1049.6875 501.2188,1049.9844 L501.2188,1052.7031 Q500.5938,1052.125 500,1051.8594 Q499.4063,1051.5781 498.7813,1051.5781 Q497.4375,1051.5781 496.75,1052.6563 Q496.0625,1053.7188 496.0625,1055.8125 Q496.0625,1057.9063 496.75,1058.9844 Q497.4375,1060.0469 498.7813,1060.0469 Q499.4063,1060.0469 500,1059.7813 Q500.5938,1059.5 501.2188,1058.9219 L501.2188,1061.6406 Z " fill="#000000"/><text fill="#000000" font-family="sans-serif" font-size="14" lengthAdjust="spacing" textLength="85" x="518.75" y="1061.432">SomeService</text><line style="stroke:#181818;stroke-width:0.5;" x1="378" x2="712" y1="1072" y2="1072"/><line style="stroke:#181818;stroke-width:0.5;" x1="378" x2="712" y1="1080" y2="1080"/><ellipse cx="388" cy="1095.034" fill="#84BE84" rx="3" ry="3" style="stroke:#038048;stroke-width:1.0;"/><text fill="#000000" font-family="sans-serif" font-size="14" lengthAdjust="spacing" textLength="310" x="397" y="1098.9659">SomeService(std::shared_ptr&lt;ServiceReactor&gt;)</text></g><g id="elem_GMN10"><path d="M758,1042 L758,1070 L713.15,1074 L758,1078 L758,1105.118 A0,0 0 0 0 758,1105.118 L1230,1105.118 A0,0 0 0 0 1230,1105.118 L1230,1052 L1220,1042 L758,1042 A0,0 0 0 0 758,1042 " fill="#FEFFDD" style="stroke:#181818;stroke-width:0.5;"/><path d="M1220,1042 L1220,1052 L1230,1052 L1220,1042 " fill="#FEFFDD" style="stroke:#181818;stroke-width:0.5;"/><text fill="#000000" font-family="sans-serif" font-size="13" lengthAdjust="spacing" textLength="451" x="764" y="1060.897">-&gt; inject the reactor only if required, e.g. in case SomeService offers methods</text><text fill="#000000" font-family="sans-serif" font-size="13" lengthAdjust="spacing" textLength="343" x="764" y="1078.603">-&gt; use a ServiceAccessor callback instead in case just some</text><text fill="#000000" font-family="sans-serif" font-size="13" lengthAdjust="spacing" textLength="275" x="773" y="1096.309">data needs to be published via fields or events</text></g><!--class ServiceReactor--><g id="elem_ServiceReactor"><rect codeLine="67" fill="#ADFF2F" height="48" id="ServiceReactor" rx="2.5" ry="2.5" style="stroke:#181818;stroke-width:0.5;" width="124" x="625" y="920.5"/><ellipse cx="640" cy="936.5" fill="#B4A7E5" rx="11" ry="11" style="stroke:#181818;stroke-width:1.0;"/><path d="M635.9219,932.2656 L635.9219,930.1094 L643.3125,930.1094 L643.3125,932.2656 L640.8438,932.2656 L640.8438,940.3438 L643.3125,940.3438 L643.3125,942.5 L635.9219,942.5 L635.9219,940.3438 L638.3906,940.3438 L638.3906,932.2656 L635.9219,932.2656 Z " fill="#000000"/><text fill="#000000" font-family="sans-serif" font-size="14" font-style="italic" lengthAdjust="spacing" textLength="92" x="654" y="941.932">ServiceReactor</text><line style="stroke:#181818;stroke-width:0.5;" x1="626" x2="748" y1="952.5" y2="952.5"/><line style="stroke:#181818;stroke-width:0.5;" x1="626" x2="748" y1="960.5" y2="960.5"/></g><!--class ServiceReactorImpl--><g id="elem_ServiceReactorImpl"><rect codeLine="70" fill="#ADFF2F" height="48" id="ServiceReactorImpl" rx="2.5" ry="2.5" style="stroke:#181818;stroke-width:0.5;" width="162" x="1246" y="677"/><ellipse cx="1261" cy="693" fill="#ADD1B2" rx="11" ry="11" style="stroke:#181818;stroke-width:1.0;"/><path d="M1263.9688,698.6406 Q1263.3906,698.9375 1262.75,699.0781 Q1262.1094,699.2344 1261.4063,699.2344 Q1258.9063,699.2344 1257.5781,697.5938 Q1256.2656,695.9375 1256.2656,692.8125 Q1256.2656,689.6875 1257.5781,688.0313 Q1258.9063,686.375 1261.4063,686.375 Q1262.1094,686.375 1262.75,686.5313 Q1263.4063,686.6875 1263.9688,686.9844 L1263.9688,689.7031 Q1263.3438,689.125 1262.75,688.8594 Q1262.1563,688.5781 1261.5313,688.5781 Q1260.1875,688.5781 1259.5,689.6563 Q1258.8125,690.7188 1258.8125,692.8125 Q1258.8125,694.9063 1259.5,695.9844 Q1260.1875,697.0469 1261.5313,697.0469 Q1262.1563,697.0469 1262.75,696.7813 Q1263.3438,696.5 1263.9688,695.9219 L1263.9688,698.6406 Z " fill="#000000"/><text fill="#000000" font-family="sans-serif" font-size="14" lengthAdjust="spacing" textLength="130" x="1275" y="698.432">ServiceReactorImpl</text><line style="stroke:#181818;stroke-width:0.5;" x1="1247" x2="1407" y1="709" y2="709"/><line style="stroke:#181818;stroke-width:0.5;" x1="1247" x2="1407" y1="717" y2="717"/></g><!--class ServiceAccessor--><g id="elem_ServiceAccessor"><rect codeLine="73" fill="#ADFF2F" height="61.412" id="ServiceAccessor" rx="2.5" ry="2.5" style="stroke:#181818;stroke-width:0.5;" width="139" x="1025.5" y="213"/><ellipse cx="1040.5" cy="235.706" fill="#ADD1B2" rx="11" ry="11" style="stroke:#181818;stroke-width:1.0;"/><path d="M1043.4688,241.3466 Q1042.8906,241.6435 1042.25,241.7841 Q1041.6094,241.9404 1040.9063,241.9404 Q1038.4063,241.9404 1037.0781,240.2998 Q1035.7656,238.6435 1035.7656,235.5185 Q1035.7656,232.3935 1037.0781,230.7373 Q1038.4063,229.081 1040.9063,229.081 Q1041.6094,229.081 1042.25,229.2373 Q1042.9063,229.3935 1043.4688,229.6904 L1043.4688,232.4091 Q1042.8438,231.831 1042.25,231.5654 Q1041.6563,231.2841 1041.0313,231.2841 Q1039.6875,231.2841 1039,232.3623 Q1038.3125,233.4248 1038.3125,235.5185 Q1038.3125,237.6123 1039,238.6904 Q1039.6875,239.7529 1041.0313,239.7529 Q1041.6563,239.7529 1042.25,239.4873 Q1042.8438,239.206 1043.4688,238.6279 L1043.4688,241.3466 Z " fill="#000000"/><text fill="#000000" font-family="sans-serif" font-size="12" font-style="italic" lengthAdjust="spacing" textLength="86" x="1065" y="230.8281">&#171;amp::callback&#187;</text><text fill="#000000" font-family="sans-serif" font-size="14" lengthAdjust="spacing" textLength="107" x="1054.5" y="249.31">ServiceAccessor</text><line style="stroke:#181818;stroke-width:0.5;" x1="1026.5" x2="1163.5" y1="258.412" y2="258.412"/><line style="stroke:#181818;stroke-width:0.5;" x1="1026.5" x2="1163.5" y1="266.412" y2="266.412"/></g><g id="elem_GMN40"><path d="M226.5,930.5 L226.5,958.206 A0,0 0 0 0 226.5,958.206 L508,958.206 L512,1039.85 L516,958.206 L579.5,958.206 A0,0 0 0 0 579.5,958.206 L579.5,940.5 L569.5,930.5 L226.5,930.5 A0,0 0 0 0 226.5,930.5 " fill="#FF00FF" style="stroke:#181818;stroke-width:0.5;"/><path d="M569.5,930.5 L569.5,940.5 L579.5,940.5 L569.5,930.5 " fill="#FF00FF" style="stroke:#181818;stroke-width:0.5;"/><text fill="#000000" font-family="sans-serif" font-size="13" lengthAdjust="spacing" textLength="332" x="232.5" y="949.397">Replace SomeService with your Service / Skeleton Name</text></g><g id="elem_N1"><path d="M1305.5,8.5 L1305.5,53.912 L1626.5,53.912 L1626.5,18.5 L1616.5,8.5 L1305.5,8.5 " fill="#FEFFDD" style="stroke:#181818;stroke-width:0.5;"/><path d="M1616.5,8.5 L1616.5,18.5 L1626.5,18.5 L1616.5,8.5 " fill="#FEFFDD" style="stroke:#181818;stroke-width:1.0;"/><text fill="#000000" font-family="sans-serif" font-size="13" font-weight="bold" lengthAdjust="spacing" textLength="37" x="1311.5" y="27.397">Note:</text><text fill="#000000" font-family="sans-serif" font-size="13" lengthAdjust="spacing" textLength="260" x="1351.5" y="27.397">Classes colored green are to be provided by</text><text fill="#000000" font-family="sans-serif" font-size="13" lengthAdjust="spacing" textLength="160" x="1311.5" y="45.103">the user of this framework.</text></g><g id="elem_GMN44"><path d="M1210,904 L1210,984.8241 A0,0 0 0 0 1210,984.8241 L1516,984.8241 A0,0 0 0 0 1516,984.8241 L1516,914 L1506,904 L1331,904 L1327,725.24 L1323,904 L1210,904 A0,0 0 0 0 1210,904 " fill="#FEFFDD" style="stroke:#181818;stroke-width:0.5;"/><path d="M1506,904 L1506,914 L1516,914 L1506,904 " fill="#FEFFDD" style="stroke:#181818;stroke-width:0.5;"/><text fill="#000000" font-family="sans-serif" font-size="13" lengthAdjust="spacing" textLength="235" x="1216" y="922.897">We can unit test our business logic now</text><text fill="#000000" font-family="sans-serif" font-size="13" lengthAdjust="spacing" textLength="285" x="1216" y="940.603">without any backend deps, since ServiceReactor</text><text fill="#000000" font-family="sans-serif" font-size="13" lengthAdjust="spacing" textLength="253" x="1216" y="958.309">or ServiceAccessor are to be used by it and</text><text fill="#000000" font-family="sans-serif" font-size="13" lengthAdjust="spacing" textLength="254" x="1216" y="976.0151">never the instance of SomeService directly.</text></g><g id="elem_GMN47"><path d="M676.5,329 L676.5,498.3541 A0,0 0 0 0 676.5,498.3541 L871,498.3541 L875,552.99 L879,498.3541 L1073.5,498.3541 A0,0 0 0 0 1073.5,498.3541 L1073.5,339 L1063.5,329 L676.5,329 A0,0 0 0 0 676.5,329 " fill="#FEFFDD" style="stroke:#181818;stroke-width:0.5;"/><path d="M1063.5,329 L1063.5,339 L1073.5,339 L1063.5,329 " fill="#FEFFDD" style="stroke:#181818;stroke-width:0.5;"/><text fill="#000000" font-family="sans-serif" font-size="13" lengthAdjust="spacing" textLength="376" x="682.5" y="347.897">ProvidedServicesContainer::Emplace&lt;ServiceType&gt;() constructs</text><text fill="#000000" font-family="sans-serif" font-size="13" lengthAdjust="spacing" textLength="317" x="682.5" y="365.603">the service in-place and immediately calls Start() on it.</text><text fill="#000000" font-family="sans-serif" font-size="13" lengthAdjust="spacing" textLength="317" x="682.5" y="383.309">If Start() fails, the service is discarded (not stored) and</text><text fill="#000000" font-family="sans-serif" font-size="13" lengthAdjust="spacing" textLength="346" x="682.5" y="401.0151">the error is propagated back to the caller via Result&lt;void&gt;.</text><text fill="#000000" font-family="sans-serif" font-size="13" lengthAdjust="spacing" textLength="339" x="682.5" y="418.7211">Compared to the deprecated ProvidedServiceContainer /</text><text fill="#000000" font-family="sans-serif" font-size="13" lengthAdjust="spacing" textLength="262" x="682.5" y="436.4271">ProvidedServiceBuilder, there is no separate</text><text fill="#000000" font-family="sans-serif" font-size="13" lengthAdjust="spacing" textLength="338" x="682.5" y="454.1331">"assemble now, start later" step and no ServiceDecorator</text><text fill="#000000" font-family="sans-serif" font-size="13" lengthAdjust="spacing" textLength="331" x="682.5" y="471.8391">template parameter: ManagedService::Start()/Stop() are</text><text fill="#000000" font-family="sans-serif" font-size="13" lengthAdjust="spacing" textLength="270" x="682.5" y="489.5451">implemented directly by the concrete service.</text></g><!--reverse link App to AppFactory--><g id="link_App_AppFactory"><path codeLine="78" d="M1255.67,67.19 C1255.67,146.72 1255.67,383 1255.67,383 C1255.67,383 1273.7,383 1300.72,383 " fill="none" id="App-backto-AppFactory" style="stroke:#181818;stroke-width:1.0;"/><polygon fill="#181818" points="1255.67,55.19,1251.67,61.19,1255.67,67.19,1259.67,61.19,1255.67,55.19" style="stroke:#181818;stroke-width:1.0;"/></g><!--link App to AppFactory--><!--reverse link App to BusinessLogic--><g id="link_App_BusinessLogic"><path codeLine="79" d="M1207.17,67.15 C1207.17,83.56 1207.17,93.19 1207.17,109.65 " fill="none" id="App-backto-BusinessLogic" style="stroke:#181818;stroke-width:1.0;"/><polygon fill="#181818" points="1207.17,55.15,1203.17,61.15,1207.17,67.15,1211.17,61.15,1207.17,55.15" style="stroke:#181818;stroke-width:1.0;"/></g><!--link App to BusinessLogic--><!--reverse link ProvidedServiceData to AppFactory--><g id="link_ProvidedServiceData_AppFactory"><path codeLine="86" d="M564.33,500.66 C564.33,518.4 564.33,526 564.33,526 C564.33,526 1336.67,526 1336.67,526 C1336.67,526 1336.67,501.69 1336.67,475.67 " fill="none" id="ProvidedServiceData-backto-AppFactory" style="stroke:#181818;stroke-width:1.0;"/><polygon fill="#181818" points="564.33,494.66,560.33,503.66,564.33,499.66,568.33,503.66,564.33,494.66" style="stroke:#181818;stroke-width:1.0;"/><text fill="#000000" font-family="sans-serif" font-size="13" lengthAdjust="spacing" textLength="44" x="914.99" y="521.897">returns</text></g><!--link AppFactory to ServiceAccessor--><g id="link_AppFactory_ServiceAccessor"><path codeLine="87" d="M1300.73,445 C1212.71,445 1134.33,445 1134.33,445 C1134.33,445 1134.33,336.47 1134.33,280.1 " fill="none" id="AppFactory-to-ServiceAccessor" style="stroke:#181818;stroke-width:1.0;stroke-dasharray:7.0,7.0;"/><polygon fill="#181818" points="1134.33,274.1,1130.33,283.1,1134.33,279.1,1138.33,283.1,1134.33,274.1" style="stroke:#181818;stroke-width:1.0;"/><text fill="#000000" font-family="sans-serif" font-size="13" lengthAdjust="spacing" textLength="36" x="1096.83" y="420.647">might</text><text fill="#000000" font-family="sans-serif" font-size="13" lengthAdjust="spacing" textLength="37" x="1096.33" y="438.353">create</text></g><!--link AppFactory to ServiceReactorImpl--><g id="link_AppFactory_ServiceReactorImpl"><path codeLine="88" d="M1372.33,475.53 C1372.33,538.59 1372.33,627.06 1372.33,670.97 " fill="none" id="AppFactory-to-ServiceReactorImpl" style="stroke:#181818;stroke-width:1.0;stroke-dasharray:7.0,7.0;"/><polygon fill="#181818" points="1372.33,676.97,1376.33,667.97,1372.33,671.97,1368.33,667.97,1372.33,676.97" style="stroke:#181818;stroke-width:1.0;"/><text fill="#000000" font-family="sans-serif" font-size="13" lengthAdjust="spacing" textLength="76" x="1295.33" y="572.147">might create</text></g><!--reverse link BusinessLogic to ServiceReactorImpl--><g id="link_BusinessLogic_ServiceReactorImpl"><path codeLine="90" d="M1214.25,164.02 C1214.25,271.02 1214.25,693 1214.25,693 C1214.25,693 1228.03,693 1245.96,693 " fill="none" id="BusinessLogic-backto-ServiceReactorImpl" style="stroke:#181818;stroke-width:1.0;"/><polygon fill="#181818" points="1214.25,158.02,1210.25,167.02,1214.25,163.02,1218.25,167.02,1214.25,158.02" style="stroke:#181818;stroke-width:1.0;"/><text fill="#000000" font-family="sans-serif" font-size="13" lengthAdjust="spacing" textLength="26" x="1187.25" y="419.257">invo</text><text fill="#000000" font-family="sans-serif" font-size="13" lengthAdjust="spacing" textLength="24" x="1188.25" y="436.963">-kes</text></g><!--link BusinessLogic to ServiceAccessor--><g id="link_BusinessLogic_ServiceAccessor"><path codeLine="91" d="M1126,158.03 C1126,174.15 1126,189.51 1126,206.85 " fill="none" id="BusinessLogic-to-ServiceAccessor" style="stroke:#181818;stroke-width:1.0;stroke-dasharray:7.0,7.0;"/><polygon fill="#181818" points="1126,212.85,1130,203.85,1126,207.85,1122,203.85,1126,212.85" style="stroke:#181818;stroke-width:1.0;"/><text fill="#000000" font-family="sans-serif" font-size="13" lengthAdjust="spacing" textLength="100" x="1022" y="163.337">uses one of both</text><text fill="#000000" font-family="sans-serif" font-size="13" lengthAdjust="spacing" textLength="64" x="1041.5" y="181.043">per service</text></g><!--link BusinessLogic to ServiceReactor--><g id="link_BusinessLogic_ServiceReactor"><path codeLine="92" d="M1179.67,158.03 C1179.67,291.64 1179.67,937 1179.67,937 C1179.67,937 887.97,937 755.4,937 " fill="none" id="BusinessLogic-to-ServiceReactor" style="stroke:#181818;stroke-width:1.0;stroke-dasharray:7.0,7.0;"/><polygon fill="#181818" points="749.4,937,758.4,941,754.4,937,758.4,933,749.4,937" style="stroke:#181818;stroke-width:1.0;"/><text fill="#000000" font-family="sans-serif" font-size="13" lengthAdjust="spacing" textLength="68" x="1107.67" y="722.547">uses one of</text><text fill="#000000" font-family="sans-serif" font-size="13" lengthAdjust="spacing" textLength="52" x="1115.67" y="740.253">both per</text><text fill="#000000" font-family="sans-serif" font-size="13" lengthAdjust="spacing" textLength="41" x="1122.67" y="757.959">service</text></g><!--reverse link BusinessLogic to ProvidedServiceData--><g id="link_BusinessLogic_ProvidedServiceData"><path codeLine="93" d="M1081.23,134 C889.99,134 353.5,134 353.5,134 C353.5,134 353.5,249.76 353.5,332.28 " fill="none" id="BusinessLogic-backto-ProvidedServiceData" style="stroke:#181818;stroke-width:1.0;"/><polygon fill="#181818" points="1087.23,134,1078.23,130,1082.23,134,1078.23,138,1087.23,134" style="stroke:#181818;stroke-width:1.0;"/><text fill="#000000" font-family="sans-serif" font-size="13" lengthAdjust="spacing" textLength="242" x="378.23" y="129.897">gets relevant accessors/reactors injected</text></g><!--reverse link ProvidedServiceData to ProvidedServicesContainer--><g id="link_ProvidedServiceData_ProvidedServicesContainer"><path codeLine="95" d="M497.17,506.73 C497.17,525 497.17,532.94 497.17,552.98 " fill="none" id="ProvidedServiceData-backto-ProvidedServicesContainer" style="stroke:#181818;stroke-width:1.0;"/><polygon fill="#181818" points="497.17,494.73,493.17,500.73,497.17,506.73,501.17,500.73,497.17,494.73" style="stroke:#181818;stroke-width:1.0;"/></g><!--reverse link ProvidedServiceData to ServiceReactor--><g id="link_ProvidedServiceData_ServiceReactor"><path codeLine="96" d="M328.25,506.71 C328.25,651.22 328.25,926 328.25,926 C328.25,926 522.24,926 624.92,926 " fill="none" id="ProvidedServiceData-backto-ServiceReactor" style="stroke:#181818;stroke-width:1.0;"/><polygon fill="#181818" points="328.25,494.71,324.25,500.71,328.25,506.71,332.25,500.71,328.25,494.71" style="stroke:#181818;stroke-width:1.0;"/></g><!--link ServiceAccessor to ProvidedServiceData--><g id="link_ServiceAccessor_ProvidedServiceData"><path codeLine="97" d="M1025.3,244 C866.7,244 492.5,244 492.5,244 C492.5,244 492.5,276.72 492.5,320.23 " fill="none" id="ServiceAccessor-to-ProvidedServiceData" style="stroke:#181818;stroke-width:1.0;"/><polygon fill="#181818" points="492.5,332.23,496.5,326.23,492.5,320.23,488.5,326.23,492.5,332.23" style="stroke:#181818;stroke-width:1.0;"/></g><!--link ServiceReactor to SomeService--><g id="link_ServiceReactor_SomeService"><path codeLine="99" d="M654.33,968.76 C654.33,988.76 654.33,1005.35 654.33,1027.61 " fill="none" id="ServiceReactor-to-SomeService" style="stroke:#181818;stroke-width:1.0;stroke-dasharray:7.0,7.0;"/><polygon fill="none" points="654.33,1039.61,658.33,1033.61,654.33,1027.61,650.33,1033.61,654.33,1039.61" style="stroke:#181818;stroke-width:1.0;"/></g><!--link ServiceAccessor to SomeService--><g id="link_ServiceAccessor_SomeService"><path codeLine="100" d="M1104.17,274.14 C1104.17,417.26 1104.17,1013 1104.17,1013 C1104.17,1013 683.67,1013 683.67,1013 C683.67,1013 683.67,1013.85 683.67,1027.71 " fill="none" id="ServiceAccessor-to-SomeService" style="stroke:#181818;stroke-width:1.0;stroke-dasharray:7.0,7.0;"/><polygon fill="none" points="683.67,1039.71,687.67,1033.71,683.67,1027.71,679.67,1033.71,683.67,1039.71" style="stroke:#181818;stroke-width:1.0;"/></g><!--link SomeService to ManagedService--><g id="link_SomeService_ManagedService"><path codeLine="102" d="M545,1107.27 C545,1123.57 545,1125.49 545,1143.73 " fill="none" id="SomeService-to-ManagedService" style="stroke:#181818;stroke-width:1.0;"/><polygon fill="none" points="545,1161.73,551,1143.73,539,1143.73,545,1161.73" style="stroke:#181818;stroke-width:1.0;"/><text fill="#000000" font-family="sans-serif" font-size="13" lengthAdjust="spacing" textLength="71" x="473" y="1130.397">implements</text></g><!--reverse link SomeServiceSkeleton to SomeService--><g id="link_SomeServiceSkeleton_SomeService"><path codeLine="104" d="M199.09,964 C302.9,964 444.5,964 444.5,964 C444.5,964 444.5,1007.58 444.5,1039.75 " fill="none" id="SomeServiceSkeleton-backto-SomeService" style="stroke:#181818;stroke-width:1.0;"/><polygon fill="none" points="181.09,964,199.09,970,199.09,958,181.09,964" style="stroke:#181818;stroke-width:1.0;"/></g><!--link ServiceReactorImpl to ServiceReactor--><g id="link_ServiceReactorImpl_ServiceReactor"><path codeLine="106" d="M1245.93,709 C1218.57,709 1194.83,709 1194.83,709 C1194.83,709 1194.83,953 1194.83,953 C1194.83,953 902.49,953 767.02,953 " fill="none" id="ServiceReactorImpl-to-ServiceReactor" style="stroke:#181818;stroke-width:1.0;"/><polygon fill="none" points="749.02,953,767.02,959,767.02,947,749.02,953" style="stroke:#181818;stroke-width:1.0;"/></g><!--SRC=[dLXRRzis57xNho1Ie7Mysi7GvKKm3AJPrXLRko7fDWpB4D3IiSr69bMIikUr_U_x3YNPaYorHGFaOlBSBzyvZ3Uvy4OiZFTc8r9bAV7AwCWzA9rBApSYKvhyFYTXh5-RneKsAJdAnNUNZKChzGCVNbv6qHDndKddo8d4PCPIAbQMI0jfIUJMR5MAeyLU-3M9mf5jC2WjDd95sij0VVNxcrzlhsu4JiXAJsaK9KmfVgl4t9BTgeJSjG4B3BRYVIJ4DyFte_Dm_yCcpsH2i-h-3VnyAgxioasdq_deJelmLTs-J66GMYgoVoZQ2LUUtgl3SSdw-36OOVRAdSVYXboH-TdMg7HUQlpNMvdufiRvw4iLGA3pQHmNMhqhw3xtjYLdMC6NCBwWhxUgmJVk5zP7z9DqNwrnOKpMBwHvUQl-euFp3X_kVJX7Mi12eyQvu5yWvLILlDxaLrasEfvD9loZjiVTLtAtw1bZP-7lNAf3Q8zkb7NLpS0hgL7ZTMtEv_FeOnGfxSakKPEYVLqLTFkmgkBtSk52qZ_2Q6dzgA_mMaGcFxZriUwbgpp_KR8dU_7e1JVgNvHbPbSflhQ4nglqtb0WV3QQSPySuhj6hwRDughfveCYBhzGn6LJHBUh3utwQHbpxikwc6nvvevr-RtqiXMDRXWETsVF2mSGmL-_c9LApeHqeZuA9psSY7sH-2uWiSxJQCi4JZbZxvVuhWqscc8XDtaS9pBB5Z9v2Cbjbl3vV8ZPxymdcBrLUXMOgwYqUTSmxpG_LL0hHvuDgbwQmlRglYuSPWwtng3gfTf-LdEeZD2PzKofsLqyZF_7PDwQJLsJjm-KaJTQp6Od4sS-RrP0WwclMHhNey_Kv3aBrSQJi6grzi8iczpisXpJy2qW9ip9Aah2w6mlr1AVtnKOskbJGTFLbETc8Xsrx3FB9LadDeJndRfI8iQja7NXNrLf4tL-8CPvakb1t5kaIZZ8Z4ARfLorcYXrONV0D2yMcN9hZFEjaWA8b-4A0caB17GHwLImYqrqQuTXiDNQP2ynheUxikDEQCkkYxDPgnAHrLDnJm2UcUGroArLxgA8iM0ycJGGyd3KQdjc_Pcm_N2cP9vdAWbYH2RtM4bacKA0hv28YCpKIeUJ3KfIc1qgZHMANFhrD6YO_BrMAQR8FobkaRQE0TthZZ5H0z4d6IqzIFhm9qOL-S9grsG0A9y4BnORhj4xdGGO7Y1lvghY41L3r4R96GBOowJqrjpfoGEv3iUKFUsrhE2r4HZ93OHjTYtkT8wOLr3G5NDYRKV2dGuoMCATxfV1nlT7SqNU8QGPRQNs1r1q5_N8gVgPjzW-0UDJmGtS6k9ekpD0LkIJRkYYg8KLqoAVTcKD4XnbT7QLsOTILOCHIKLkQHC08Ue5tG-J5WkeJcjZCldGJLq5dznMRV0KZrwLRmYWrWs5HRzrlLD8yHxZgHOeBiJ1cjSIQ7S4hg02UFBwMmWRZr_ZOpmUV-A1Km7ZyPa3llgXmtRwjN9YYISJxOnzc7PLLGyoTkWa293q9m6OjS0o2KmXW3DxiQYtaYmKg3OxKBAJfa0PwhrWn6CzAUKEwwZI9pWC1cDFkkle3wmFJpR50dabre1u6npZcI5rc3UjA9Tlocn_ucALiE5I5yDtSTppSiFgZqJeSjDoLRohveLvax8267hLPaEf0Y9XYF8eSFNUZFw7RrFmlbmUpfPIPOXNIvg3NowHbdCxWZjOKhW0pgkmC2rPYzY14aMGonKl4I4374g-PyM87K_CvhBEog_D9kU5eIP5mX348A4JakE3z-8qNiyBbQNyB8KC6upM1YxmIztpA3_ZujqiCk9QuVS9_CMimeW-mmSgnnHOQX2Xn80pL8adZZ-o69xz19QuypQ9uof-5-LpWwi8Z0SKW2zrQTJ_143oC2Zy8SoDalaV]--></g></svg>